<svg width="24" height="32" xmlns="http://www.w3.org/2000/svg"><g fill="#1875F0"><path d="M23.333 32H.667A.667.667 0 0 1 0 31.333V8.667c0-.178.07-.347.195-.472l8-8A.671.671 0 0 1 8.667 0h14.666c.368 0 .667.299.667.667v30.666a.667.667 0 0 1-.667.667zm-22-1.333h21.334V1.333H8.943l-7.61 7.61v21.724z"/><path d="M8.667 9.333h-8A.667.667 0 0 1 .667 8H8V.667a.667.667 0 0 1 1.333 0v8a.667.667 0 0 1-.666.666zm9.151 8.394h-1.773v-1.772a.591.591 0 0 0-.59-.591h-1.773V13.59a.591.591 0 0 0-.592-.59H7.18a.591.591 0 0 0-.59.59v7.092c0 .326.265.59.59.59h1.774v1.773a.59.59 0 0 0 .59.591h1.773v1.773c0 .326.265.591.591.591h5.91c.325 0 .59-.265.59-.59v-7.092a.591.591 0 0 0-.59-.59zM7.773 20.091v-5.91H12.5v1.183H9.545a.591.591 0 0 0-.59.59v4.137H7.773zm2.363 2.364v-5.91h4.728v1.182h-2.955a.591.591 0 0 0-.59.591v4.137h-1.183zm7.091 2.363H12.5V18.91h4.727v5.91z"/></g></svg>