<svg width="24" height="32" xmlns="http://www.w3.org/2000/svg"><g fill="#1875F0"><path d="M23.333 32H.667A.667.667 0 0 1 0 31.333V8.667c0-.178.07-.347.195-.472l8-8A.671.671 0 0 1 8.667 0h14.666c.368 0 .667.299.667.667v30.666a.667.667 0 0 1-.667.667zm-22-1.333h21.334V1.333H8.943l-7.61 7.61v21.724z"/><path d="M8.667 9.333h-8A.667.667 0 0 1 .667 8H8V.667a.667.667 0 0 1 1.333 0v8a.667.667 0 0 1-.666.666zM4.604 29.421c-.256 0-.52-.036-.788-.113-.939-.27-1.113-.836-1.135-1.148-.074-1.112 1.94-2.684 5.996-4.684.467-.95.856-1.859 1.139-2.516l.24-.559c.275-.63.553-1.402.803-2.222-1.538-2.304-1.839-4.771-1.235-6.228.336-.816.96-1.284 1.71-1.284h.011c.551.01 1.019.273 1.32.741.82 1.277.323 4.157-.348 6.519.243.316.515.629.82.934.816.815 1.64 1.496 2.424 2.05 2.016-.356 3.954-.324 4.967.336.52.338.805.842.805 1.42 0 .62-.308 1.104-.846 1.326-1.127.467-3.183-.338-5.199-1.67-.999.208-2.043.524-3.02.954-.933.411-1.803.815-2.599 1.206-1.249 2.461-2.95 4.938-5.065 4.938zm-.539-1.434c.032.012.071.026.119.04 1.159.336 2.32-.859 3.315-2.423-1.935 1.061-3.148 1.924-3.434 2.383zm13.338-5.95c1.341.691 2.342.906 2.594.714.003-.167-.013-.267-.197-.387-.42-.275-1.303-.388-2.397-.327zm-5.558-2.598a20.62 20.62 0 0 1-.568 1.494l-.237.552c-.144.338-.303.707-.475 1.095.375-.172.764-.345 1.166-.523.661-.29 1.39-.549 2.144-.758a19.564 19.564 0 0 1-1.68-1.494c-.12-.121-.236-.244-.35-.366zM11.328 12c-.19.003-.348.157-.473.46-.32.772-.262 2.268.494 3.879.422-1.844.598-3.584.195-4.21-.068-.105-.125-.126-.216-.129z"/></g></svg>