<svg width="24" height="32" xmlns="http://www.w3.org/2000/svg"><g fill="#1875F0"><path d="M23.333 32H.667A.667.667 0 0 1 0 31.333V8.667c0-.178.07-.347.195-.472l8-8A.671.671 0 0 1 8.667 0h14.666c.368 0 .667.299.667.667v30.666a.667.667 0 0 1-.667.667zm-22-1.333h21.334V1.333H8.943l-7.61 7.61v21.724z"/><path d="M8.667 9.333h-8A.667.667 0 0 1 .667 8H8V.667a.667.667 0 0 1 1.333 0v8a.667.667 0 0 1-.666.666zM18.364 14H5.636a.637.637 0 0 0-.636.636v11.455c0 .351.285.636.636.636h12.728a.637.637 0 0 0 .636-.636V14.636a.637.637 0 0 0-.636-.636zM6.273 19.09h2.545v2.546H6.273v-2.545zm3.818 0h7.636v2.546h-7.636v-2.545zm7.636-1.272h-7.636v-2.545h7.636v2.545zm-8.909-2.545v2.545H6.273v-2.545h2.545zm-2.545 7.636h2.545v2.546H6.273v-2.546zm3.818 2.546v-2.546h7.636v2.546h-7.636z"/></g></svg>