<svg width="24" height="32" xmlns="http://www.w3.org/2000/svg"><g fill="#1875F0"><path d="M23.333 32H.667A.667.667 0 0 1 0 31.333V8.667c0-.178.07-.347.195-.472l8-8A.671.671 0 0 1 8.667 0h14.666c.368 0 .667.299.667.667v30.666a.667.667 0 0 1-.667.667zm-22-1.333h21.334V1.333H8.943l-7.61 7.61v21.724z"/><path d="M8.667 9.333h-8A.667.667 0 0 1 .667 8H8V.667a.667.667 0 0 1 1.333 0v8a.667.667 0 0 1-.666.666zM10 22.667A.667.667 0 0 1 9.333 22v-8c0-.252.143-.483.368-.596l8-4a.674.674 0 0 1 .648.028.67.67 0 0 1 .318.568v9.333a.667.667 0 0 1-1.334 0v-8.256l-6.666 3.334V22a.667.667 0 0 1-.667.667z"/><path d="M8 24c-1.496 0-2.667-.879-2.667-2S6.504 20 8 20c1.496 0 2.667.879 2.667 2S9.496 24 8 24zm0-2.667c-.813 0-1.333.395-1.333.667s.52.667 1.333.667 1.333-.395 1.333-.667-.52-.667-1.333-.667zm8 0c-1.496 0-2.667-.878-2.667-2 0-1.121 1.171-2 2.667-2 1.496 0 2.667.879 2.667 2 0 1.122-1.171 2-2.667 2zm0-2.666c-.813 0-1.333.394-1.333.666S15.187 20 16 20s1.333-.395 1.333-.667-.52-.666-1.333-.666z"/></g></svg>