<svg width="24" height="32" xmlns="http://www.w3.org/2000/svg"><g fill="#1875F0"><path d="M23.333 32H.667A.667.667 0 0 1 0 31.333V8.667c0-.178.07-.347.195-.472l8-8A.671.671 0 0 1 8.667 0h14.666c.368 0 .667.299.667.667v30.666a.667.667 0 0 1-.667.667zm-22-1.333h21.334V1.333H8.943l-7.61 7.61v21.724z"/><path d="M8.667 9.333h-8A.667.667 0 0 1 .667 8H8V.667a.667.667 0 0 1 1.333 0v8a.667.667 0 0 1-.666.666zm0 14.667A.667.667 0 0 1 8 23.333V12.667a.667.667 0 0 1 1.037-.555l8 5.333a.668.668 0 0 1-.001 1.11l-8 5.333a.663.663 0 0 1-.37.112zm.666-10.088v8.176L15.465 18l-6.132-4.088z"/></g></svg>